:FULLY-SPECIFIED
:FORCE-ALL-JOINTS-BE-3DOF
:DEGREES
476
root 3.62236 16.2955 -7.13785 4.99145 59.8207 -7.08863
lfemur -40.2501 -0.212509 -21.5734
ltibia 49.6035 -0 0
lfoot -20.6181 -1.30372 -0.00128832
ltoes 16.4569 -0 0
rfemur -23.8309 0.19984 10.5937
rtibia 68.6258 -0 0
rfoot 23.8798 5.27822 -0.326774
rtoes -29.8624 0 0
lowerback 1.79308 -0.15511 1.85031
upperback -0.5324 -0.139155 1.15209
thorax -1.54789 -0.0780462 0.15219
lowerneck -8.47226 -6.67318 0.667109
upperneck 3.95255 -9.06469 1.39425
head 2.77856 -4.44336 -0.123092
lclavicle 1.07344e-14 -1.59028e-15 0
lhumerus -48.6139 -27.3713 108.387
lradius 55.1821 -0 0
lwrist 4.20394 0 0
lhand -9.494 -5.87093 0.306887
lfingers 7.12502 -0 0
lthumb 16.4589 23.2694 0.258123
rclavicle 1.07344e-14 -1.59028e-15 0
rhumerus -53.4421 3.05444 -85.0931
rradius 62.9769 -0 0
rwrist 15.9421 0 0
rhand -28.0804 -26.6115 0.0483725
rfingers 7.12502 -0 0
rthumb -1.46348 -56.5761 0.0463018
477
root 3.70108 16.3176 -7.09307 5.20043 61.0089 -6.50712
lfemur -39.3298 -1.48441 -21.8735
ltibia 49.0913 -0 0
lfoot -20.6503 -1.22034 -0.00112435
ltoes 16.6934 -0 0
rfemur -25.6558 0.291159 10.3557
rtibia 70.9256 -0 0
rfoot 23.35 6.56328 -0.285087
rtoes -28.4646 0 0
lowerback 1.93651 -0.172585 1.57074
upperback -0.49618 -0.168593 1.06385
thorax -1.59139 -0.0911381 0.218987
lowerneck -8.47462 -6.83343 0.523755
upperneck 4.02328 -9.26963 1.47133
head 2.81354 -4.54353 -0.0869393
lclavicle 1.07344e-14 -1.59028e-15 0
lhumerus -48.7452 -27.65 108.627
lradius 55.4492 -0 0
lwrist 4.42649 0 0
lhand -8.36671 -5.30375 0.267753
lfingers 7.12502 -0 0
lthumb 17.545 23.7646 0.225214
rclavicle 1.07344e-14 -1.59028e-15 0
rhumerus -53.2319 3.62196 -85.5302
rradius 63.0681 -0 0
rwrist 16.3947 0 0
rhand -27.7893 -26.2653 0.0422145
rfingers 7.12502 -0 0
rthumb -1.18231 -56.233 0.0404074
478
root 3.77979 16.3397 -7.04829 5.44343 62.1958 -5.89359
lfemur -38.4021 -2.75131 -22.1942
ltibia 48.5792 -0 0
lfoot -20.6825 -1.13697 -0.000913535
ltoes 16.9299 -0 0
rfemur -27.4811 0.37485 10.1148
rtibia 73.2253 -0 0
rfoot 22.8213 7.8479 -0.23153
rtoes -27.0669 0 0
lowerback 2.08002 -0.18936 1.29113
upperback -0.459914 -0.197975 0.975587
thorax -1.6349 -0.104179 0.285793
lowerneck -8.47658 -6.9937 0.38036
upperneck 4.09378 -9.47466 1.5482
head 2.84845 -4.64373 -0.050843
lclavicle 1.07344e-14 -1.59028e-15 0
lhumerus -48.8782 -27.9283 108.868
lradius 55.7164 -0 0
lwrist 4.64904 0 0
lhand -7.23988 -4.73745 0.21747
lfingers 7.12502 -0 0
lthumb 18.6308 24.259 0.182927
rclavicle 1.07344e-14 -1.59028e-15 0
rhumerus -53.026 4.19106 -85.9655
rradius 63.1593 -0 0
rwrist 16.8472 0 0
rhand -27.4982 -25.9192 0.0342976
rfingers 7.12502 -0 0
rthumb -0.901182 -55.8899 0.0328296
479
root 3.85851 16.3617 -7.00351 5.72476 63.3815 -5.24362
lfemur -37.4661 -4.01282 -22.5358
ltibia 48.0671 -0 0
lfoot -20.7147 -1.05359 -0.00065587
ltoes 17.1665 -0 0
rfemur -29.3067 0.450828 9.87148
rtibia 75.525 -0 0
rfoot 22.2939 9.13196 -0.166137
rtoes -25.6691 0 0
lowerback 2.22362 -0.205435 1.01148
upperback -0.423603 -0.227302 0.887308
thorax -1.67842 -0.11717 0.352609
lowerneck -8.47813 -7.15396 0.23692
upperneck 4.16404 -9.67978 1.62486
head 2.8833 -4.74395 -0.0148029
lclavicle 1.07344e-14 -1.59028e-15 0
lhumerus -49.0128 -28.2061 109.11
lradius 55.9835 -0 0
lwrist 4.87159 0 0
lhand -6.1136 -4.17225 0.156063
lfingers 7.12502 -0 0
lthumb 19.7162 24.7525 0.13128
rclavicle 1.07344e-14 -1.59028e-15 0
rhumerus -52.8242 4.7617 -86.399
rradius 63.2506 -0 0
rwrist 17.2997 0 0
rhand -27.2072 -25.5731 0.0246225
rfingers 7.12502 -0 0
rthumb -0.620105 -55.5469 0.0235686
480
root 3.93722 16.3838 -6.95873 6.04956 64.5655 -4.55199
lfemur -36.5208 -5.26857 -22.8987
ltibia 47.5549 -0 0
lfoot -20.7469 -0.970218 -0.000351358
ltoes 17.403 -0 0
rfemur -31.1327 0.519014 9.62581
rtibia 77.8248 -0 0
rfoot 21.7681 10.4154 -0.0889453
rtoes -24.2714 0 0
lowerback 2.36729 -0.220808 0.731786
upperback -0.387247 -0.256572 0.799012
thorax -1.72196 -0.130109 0.419434
lowerneck -8.47928 -7.31423 0.0934331
upperneck 4.23406 -9.88499 1.70131
head 2.9181 -4.84419 0.0211814
lclavicle 1.07344e-14 -1.59028e-15 0
lhumerus -49.1491 -28.4833 109.353
lradius 56.2506 -0 0
lwrist 5.09414 0 0
lhand -4.98798 -3.60837 0.0835611
lfingers 7.12502 -0 0
lthumb 20.8011 25.245 0.0702953
rclavicle 1.07344e-14 -1.59028e-15 0
rhumerus -52.6266 5.33385 -86.8309
rradius 63.3418 -0 0
rwrist 17.7522 0 0
rhand -26.9162 -25.2271 0.0131898
rfingers 7.12502 -0 0
rthumb -0.339088 -55.2039 0.0126252
481
root 4.01594 16.4059 -6.91395 6.42394 65.7477 -3.81247
lfemur -35.5655 -6.51815 -23.2832
ltibia 47.0428 0 0
lfoot -20.7791 -0.886843 0
ltoes 17.6395 0 0
rfemur -32.9589 0.579337 9.3781
rtibia 80.1245 0 0
rfoot 21.2442 11.698 0
rtoes -22.8736 0 0
lowerback 2.51103 -0.23548 0.452055
upperback -0.350846 -0.285786 0.710696
thorax -1.76552 -0.142998 0.48627
lowerneck -8.48002 -7.4745 -0.0501023
upperneck 4.30385 -10.0903 1.77756
head 2.95284 -4.94445 0.0571099
lclavicle -1.58003e-14 9.74045e-15 0
lhumerus -49.2871 -28.7601 109.598
lradius 56.5177 0 0
lwrist 5.31669 0 0
lhand -3.86313 -3.04602 0
lfingers 7.12502 0 0
lthumb 21.8854 25.7362 0
rclavicle -1.58003e-14 9.74045e-15 0
rhumerus -52.4331 5.90746 -87.2613
rradius 63.433 0 0
rwrist 18.2047 0 0
rhand -26.6253 -24.8811 0
rfingers 7.12502 0 0
rthumb -0.0581423 -774.861 0
482
root 4.08562 16.4111 -6.85512 6.26612 66.9523 -3.757
lfemur -35.0128 -7.24676 -23.196
ltibia 46.9586 -0 0
lfoot -20.9663 -1.22151 0.00820614
ltoes 17.6484 -0 0
rfemur -34.4815 0.882709 9.46937
rtibia 79.865 -0 0
rfoot 20.5344 11.6572 0.0038028
rtoes -22.4162 0 0
lowerback 2.67235 -0.252951 0.341509
upperback -0.317433 -0.310231 0.729392
thorax -1.82013 -0.154218 0.570101
lowerneck -8.51118 -7.58977 -0.146223
upperneck 4.51712 -10.2386 1.77546
head 3.04202 -5.01715 0.054192
lclavicle -1.58003e-14 9.74045e-15 0
lhumerus -49.256 -29.0033 109.958
lradius 56.4909 -0 0
lwrist 5.23222 0 0
lhand -3.14266 -2.8035 0.0229478
lfingers 7.12502 -0 0
lthumb 22.5745 25.8688 0.011998
rclavicle -1.58003e-14 9.74045e-15 0
rhumerus -51.7606 7.5715 -87.9736
rradius 64.8081 -0 0
rwrist 18.7715 0 0
rhand -25.2539 -24.4117 0.0853015
rfingers 7.12502 -0 0
rthumb 1.26364 -54.3225 0.0942808
483
root 4.15529 16.4163 -6.7963 6.1032 68.1569 -3.70756
lfemur -34.4603 -7.97617 -23.1157
ltibia 46.8744 -0 0
lfoot -21.1535 -1.5562 0.0153189
ltoes 17.6572 -0 0
rfemur -36.0037 1.1884 9.55256
rtibia 79.6056 -0 0
rfoot 19.8245 11.6163 0.00709974
rtoes -21.9588 0 0
lowerback 2.83369 -0.27011 0.230915
upperback -0.284028 -0.334687 0.748073
thorax -1.87476 -0.165357 0.653943
lowerneck -8.54216 -7.7051 -0.242307
upperneck 4.73049 -10.3869 1.7728
head 3.13121 -5.08984 0.0511602
lclavicle -1.58003e-14 9.74045e-15 0
lhumerus -49.2265 -29.2467 110.318
lradius 56.464 -0 0
lwrist 5.14775 0 0
lhand -2.42209 -2.56071 0.0428441
lfingers 7.12502 -0 0
lthumb 23.2635 26.0016 0.0223999
rclavicle -1.58003e-14 9.74045e-15 0
rhumerus -51.1062 9.24363 -88.6691
rradius 66.1832 -0 0
rwrist 19.3383 0 0
rhand -23.8818 -23.9403 0.159341
rfingers 7.12502 -0 0
rthumb 2.58625 -53.7819 0.17611
484
root 4.22497 16.4215 -6.73747 5.93416 69.3616 -3.66508
lfemur -33.9077 -8.70631 -23.0424
ltibia 46.7902 -0 0
lfoot -21.3407 -1.89092 0.0213379
ltoes 17.6661 -0 0
rfemur -37.5257 1.49619 9.6276
rtibia 79.3461 -0 0
rfoot 19.1147 11.5754 0.00989032
rtoes -21.5014 0 0
lowerback 2.99508 -0.286958 0.120272
upperback -0.250631 -0.359155 0.76674
thorax -1.9294 -0.176417 0.737795
lowerneck -8.57295 -7.82047 -0.338353
upperneck 4.94397 -10.5352 1.76957
head 3.22042 -5.16253 0.0480144
lclavicle -1.58003e-14 9.74045e-15 0
lhumerus -49.1987 -29.4903 110.679
lradius 56.4371 -0 0
lwrist 5.06328 0 0
lhand -1.70145 -2.31769 0.0596854
lfingers 7.12502 -0 0
lthumb 23.9527 26.1345 0.0312041
rclavicle -1.58003e-14 9.74045e-15 0
rhumerus -50.4691 10.9234 -89.3487
rradius 67.5583 -0 0
rwrist 19.9051 0 0
rhand -22.5091 -23.4674 0.22207
rfingers 7.12502 -0 0
rthumb 3.90959 -53.2396 0.245437
485
root 4.29465 16.4267 -6.67864 5.75777 70.5663 -3.63076
lfemur -33.355 -9.43711 -22.9761
ltibia 46.706 -0 0
lfoot -21.528 -2.22565 0.0262629
ltoes 17.6749 -0 0
rfemur -39.0476 1.80586 9.69445
rtibia 79.0866 -0 0
rfoot 18.4049 11.5345 0.0121741
rtoes -21.0439 0 0
lowerback 3.15649 -0.303494 0.00958229
upperback -0.217241 -0.383632 0.785393
thorax -1.98406 -0.187397 0.821658
lowerneck -8.60355 -7.9359 -0.434365
upperneck 5.15757 -10.6835 1.76578
head 3.30964 -5.23522 0.0447546
lclavicle -1.58003e-14 9.74045e-15 0
lhumerus -49.1727 -29.734 111.041
lradius 56.4103 -0 0
lwrist 4.9788 0 0
lhand -0.980745 -2.07448 0.0734686
lfingers 7.12502 -0 0
lthumb 24.6418 26.2675 0.0384094
rclavicle -1.58003e-14 9.74045e-15 0
rhumerus -49.8486 12.6104 -90.0133
rradius 68.9334 -0 0
rwrist 20.4719 0 0
rhand -21.136 -22.993 0.273449
rfingers 7.12502 -0 0
rthumb 5.23353 -52.6958 0.302218
486
root 4.36432 16.4319 -6.61982 5.57247 71.7711 -3.60611
lfemur -32.8019 -10.1685 -22.9168
ltibia 46.6218 -0 0
lfoot -21.7153 -2.5604 0.0300937
ltoes 17.6838 -0 0
rfemur -40.5693 2.1172 9.75306
rtibia 78.8272 -0 0
rfoot 17.695 11.4936 0.0139508
rtoes -20.5865 0 0
lowerback 3.31794 -0.319718 -0.101154
upperback -0.18386 -0.408121 0.804032
thorax -2.03874 -0.198296 0.905531
lowerneck -8.63396 -8.05137 -0.53034
upperneck 5.37128 -10.8317 1.76143
head 3.39887 -5.3079 0.0413807
lclavicle -1.58003e-14 9.74045e-15 0
lhumerus -49.1483 -29.9779 111.404
lradius 56.3834 -0 0
lwrist 4.89433 0 0
lhand -0.259986 -1.83111 0.0841915
lfingers 7.12502 -0 0
lthumb 25.3309 26.4006 0.0440147
rclavicle -1.58003e-14 9.74045e-15 0
rhumerus -49.2439 14.3043 -90.6638
rradius 70.3086 -0 0
rwrist 21.0386 0 0
rhand -19.7625 -22.5176 0.313445
rfingers 7.12502 -0 0
rthumb 6.55795 -52.1509 0.346418
487
root 4.434 16.4371 -6.56099 5.37626 72.9758 -3.59309
lfemur -32.2483 -10.9005 -22.8646
ltibia 46.5376 -0 0
lfoot -21.9026 -2.89516 0.0328301
ltoes 17.6926 -0 0
rfemur -42.0911 2.42999 9.80339
rtibia 78.5677 -0 0
rfoot 16.9852 11.4526 0.01522
rtoes -20.1291 0 0
lowerback 3.47941 -0.33563 -0.211935
upperback -0.150486 -0.432621 0.822656
thorax -2.09343 -0.209116 0.989415
lowerneck -8.66419 -8.1669 -0.626282
upperneck 5.5851 -10.98 1.75651
head 3.48812 -5.38057 0.0378928
lclavicle -1.58003e-14 9.74045e-15 0
lhumerus -49.1257 -30.2219 111.767
lradius 56.3566 -0 0
lwrist 4.80986 0 0
lhand 0.460813 -1.58763 0.091852
lfingers 7.12502 -0 0
lthumb 26.0201 26.5337 0.048019
rclavicle -1.58003e-14 9.74045e-15 0
rhumerus -48.6544 16.0047 -91.3008
rradius 71.6837 -0 0
rwrist 21.6054 0 0
rhand -18.3887 -22.0413 0.342032
rfingers 7.12502 -0 0
rthumb 7.88274 -51.6051 0.37801
